<?xml version="1.0" standalone="no"?>
<!DOCTYPE svg PUBLIC "-//W3C//DTD SVG 20010904//EN"
 "http://www.w3.org/TR/2001/REC-SVG-20010904/DTD/svg10.dtd">
<svg version="1.0" xmlns="http://www.w3.org/2000/svg"
 width="407.000000pt" height="407.000000pt" viewBox="0 0 407.000000 407.000000"
 preserveAspectRatio="xMidYMid meet">

<g transform="translate(0.000000,407.000000) scale(0.100000,-0.100000)"
fill="#000000" stroke="none">
<path d="M2431 3428 c-23 -18 -198 -200 -389 -403 -191 -204 -461 -492 -601
-640 -139 -149 -262 -283 -272 -300 -34 -55 -18 -115 38 -144 14 -7 116 -11
307 -11 156 0 291 -3 300 -6 9 -3 16 -15 16 -27 0 -11 -68 -227 -150 -481 -96
-294 -149 -469 -145 -484 14 -56 75 -78 133 -48 15 8 63 54 107 102 79 87 231
252 730 789 138 148 288 310 334 360 122 132 136 160 109 220 -24 52 -41 55
-373 55 -266 0 -306 2 -312 15 -3 9 43 156 102 328 59 172 132 384 162 471 47
138 53 163 43 186 -12 28 -47 50 -80 50 -10 0 -37 -15 -59 -32z"/>
</g>
</svg>
